<?xml version="1.0" encoding="UTF-8"?>
<svg xmlns="http://www.w3.org/2000/svg" xmlns:xlink="http://www.w3.org/1999/xlink" width="177.46pt" height="103.6pt" viewBox="51.32 94.01 177.46 103.6">
<path fill-rule="nonzero" fill="rgb(10.998535%, 54.499817%, 4.699707%)" fill-opacity="1" d="M 60.152344 174.488281 C 54.5 174.488281 51.675781 170.792969 51.675781 163.402344 L 51.675781 97.949219 C 51.675781 96.84375 52.066406 95.90625 52.855469 95.128906 C 53.636719 94.347656 54.5625 93.960938 55.628906 93.960938 C 56.699219 93.960938 57.609375 94.347656 58.363281 95.128906 C 59.117188 95.90625 59.492188 96.84375 59.492188 97.949219 L 59.492188 163.984375 C 59.492188 165.734375 59.933594 166.902344 60.8125 167.484375 C 60.9375 167.550781 61.28125 167.746094 61.847656 168.070312 C 62.414062 168.394531 62.804688 168.621094 63.027344 168.75 C 63.246094 168.878906 63.496094 169.125 63.78125 169.480469 C 64.0625 169.835938 64.234375 170.207031 64.296875 170.597656 L 64.296875 170.695312 C 64.359375 170.953125 64.390625 171.179688 64.390625 171.375 C 64.390625 172.023438 64.234375 172.640625 63.917969 173.222656 C 63.417969 173.9375 62.726562 174.355469 61.847656 174.488281 Z M 60.152344 174.488281 "/>
<path fill-rule="nonzero" fill="rgb(10.998535%, 54.499817%, 4.699707%)" fill-opacity="1" d="M 147.628906 196.953125 C 146.6875 196.953125 145.761719 196.890625 144.851562 196.757812 C 143.941406 196.628906 143.265625 196.144531 142.824219 195.300781 C 142.386719 194.457031 142.292969 193.550781 142.542969 192.578125 C 142.730469 191.734375 143.203125 191.085938 143.957031 190.632812 C 144.710938 190.179688 145.558594 189.984375 146.5 190.050781 C 146.8125 190.113281 147.097656 190.144531 147.347656 190.144531 C 152.746094 190.144531 156.796875 186.09375 159.496094 177.988281 L 160.441406 174.488281 C 160.628906 174.035156 160.628906 173.578125 160.441406 173.125 L 141.226562 123.625 C 141.035156 123.234375 140.941406 122.878906 140.941406 122.554688 C 140.941406 122.035156 141.097656 121.519531 141.414062 120.996094 C 141.976562 120.15625 142.761719 119.734375 143.765625 119.734375 C 144.960938 119.734375 146.074219 120.089844 147.109375 120.804688 C 148.148438 121.519531 148.886719 122.492188 149.324219 123.71875 L 158.933594 150.464844 C 159.433594 151.828125 160.265625 154.226562 161.429688 157.664062 C 162.589844 161.097656 163.484375 163.691406 164.113281 165.441406 C 164.113281 165.574219 164.207031 165.636719 164.398438 165.636719 C 164.582031 165.636719 164.675781 165.574219 164.675781 165.441406 C 164.929688 164.535156 165.585938 162.265625 166.65625 158.636719 C 167.722656 155.003906 168.539062 152.28125 169.105469 150.464844 L 177.582031 123.527344 C 177.960938 122.359375 178.617188 121.4375 179.5625 120.753906 C 180.503906 120.074219 181.539062 119.734375 182.667969 119.734375 C 183.613281 119.734375 184.363281 120.121094 184.929688 120.898438 C 185.242188 121.417969 185.402344 121.9375 185.402344 122.457031 C 185.402344 122.78125 185.335938 123.105469 185.210938 123.429688 L 166.65625 178.476562 C 164.710938 184.246094 162.230469 188.769531 159.214844 192.042969 C 156.203125 195.316406 152.339844 196.953125 147.628906 196.953125 "/>
<path fill-rule="nonzero" fill="rgb(10.998535%, 54.499817%, 4.699707%)" fill-opacity="1" d="M 205.566406 167.972656 C 208.011719 167.972656 210.382812 167.40625 212.675781 166.269531 C 214.964844 165.136719 217.433594 163.367188 220.066406 160.96875 C 220.382812 160.644531 220.539062 160.222656 220.539062 159.703125 L 220.539062 145.503906 C 220.539062 145.050781 220.382812 144.824219 220.066406 144.824219 L 219.878906 144.824219 C 211.214844 145.925781 205.046875 147.597656 201.375 149.832031 C 197.699219 152.070312 195.863281 155.101562 195.863281 158.925781 C 195.863281 161.976562 196.757812 164.242188 198.546875 165.734375 C 200.335938 167.226562 202.675781 167.972656 205.566406 167.972656 M 203.398438 174.488281 C 199.003906 174.488281 195.375 173.160156 192.519531 170.5 C 189.660156 167.84375 188.234375 164.148438 188.234375 159.414062 C 188.234375 153.644531 190.742188 149.1875 195.769531 146.039062 C 200.789062 142.894531 208.828125 140.675781 219.878906 139.378906 C 220.382812 139.316406 220.601562 139.023438 220.539062 138.503906 C 220.476562 129.363281 216.804688 124.789062 209.519531 124.789062 C 205.25 124.789062 200.851562 126.1875 196.332031 128.972656 C 195.578125 129.425781 194.792969 129.554688 193.980469 129.363281 C 193.160156 129.167969 192.53125 128.714844 192.09375 128 C 191.652344 127.15625 191.542969 126.296875 191.765625 125.421875 C 191.984375 124.546875 192.46875 123.882812 193.222656 123.429688 C 199.1875 119.863281 205.027344 118.078125 210.746094 118.078125 C 216.835938 118.078125 221.292969 120.011719 224.121094 123.867188 C 226.945312 127.726562 228.359375 133.058594 228.359375 139.867188 L 228.359375 169.917969 C 228.359375 170.824219 228.042969 171.601562 227.417969 172.25 C 226.785156 172.898438 226.035156 173.222656 225.15625 173.222656 C 224.277344 173.222656 223.492188 172.898438 222.800781 172.25 C 222.109375 171.601562 221.699219 170.824219 221.578125 169.917969 L 221.292969 166.804688 C 221.292969 166.675781 221.246094 166.609375 221.152344 166.609375 C 221.058594 166.609375 220.949219 166.644531 220.824219 166.707031 C 214.855469 171.898438 209.046875 174.488281 203.398438 174.488281 "/>
<path fill-rule="nonzero" fill="rgb(10.998535%, 54.499817%, 4.699707%)" fill-opacity="1" d="M 110.941406 124.089844 C 115.339844 115.6875 122.523438 110.546875 132.449219 108.628906 C 120.828125 112.234375 107.808594 124.710938 108.285156 139.917969 L 108.285156 143.121094 L 108.269531 143.121094 L 108.269531 157.273438 C 108.269531 157.726562 108.113281 158.148438 107.800781 158.539062 C 105.289062 161.714844 102.949219 164 100.785156 165.394531 C 98.617188 166.789062 96.246094 167.484375 93.671875 167.484375 C 89.964844 167.484375 87.3125 166.304688 85.714844 163.9375 C 84.109375 161.570312 83.308594 157.792969 83.308594 152.605469 L 83.308594 123.527344 C 83.308594 122.359375 82.933594 121.386719 82.179688 120.609375 C 81.425781 119.832031 80.5 119.441406 79.398438 119.441406 C 78.300781 119.441406 77.375 119.832031 76.625 120.609375 C 75.871094 121.386719 75.492188 122.359375 75.492188 123.527344 L 75.492188 153.574219 C 75.492188 167.519531 80.765625 174.488281 91.316406 174.488281 C 94.707031 174.488281 97.769531 173.660156 100.5 172.007812 C 103.230469 170.355469 105.917969 167.941406 108.554688 164.761719 C 108.613281 164.699219 108.695312 164.664062 108.789062 164.664062 C 108.882812 164.664062 108.960938 164.699219 109.023438 164.761719 L 109.402344 169.917969 C 109.464844 170.824219 109.824219 171.601562 110.484375 172.25 C 111.144531 172.898438 111.945312 173.222656 112.886719 173.222656 C 113.765625 173.222656 114.519531 172.898438 115.144531 172.25 C 115.773438 171.601562 116.089844 170.824219 116.089844 169.917969 L 116.089844 143.121094 L 116.074219 143.121094 L 116.074219 140.625 C 116.074219 124.257812 137.8125 135.199219 140.40625 103.066406 C 108.613281 104.097656 109.945312 118.699219 110.941406 124.089844 "/>
<path fill-rule="nonzero" fill="rgb(10.998535%, 54.499817%, 4.699707%)" fill-opacity="1" d="M 107.085938 119.476562 C 107.191406 116.574219 106.089844 113.753906 104.039062 111.691406 C 101.980469 109.632812 99.160156 108.523438 96.253906 108.625 C 96.140625 111.539062 97.246094 114.363281 99.300781 116.433594 C 101.359375 118.480469 104.179688 119.585938 107.085938 119.476562 "/>
</svg>
